<svg width="1442" height="858" viewBox="0 0 1442 858" fill="none" xmlns="http://www.w3.org/2000/svg">
<path fill-rule="evenodd" clip-rule="evenodd" d="M34 36.2065V32.8256L34 11.1461C34 8.09827 34.3567 4.57352 35.4865 1H1V758H1441V1L1405.67 1C1407.12 4.05797 1407.98 7.44 1407.98 11.1461V735.22C1407.98 735.22 1409.65 752.88 1382.85 752.88H754.502L603.699 620.428H59.1338C59.1338 620.428 33.9995 620.428 34 580.692C34.0005 545.838 34.0001 141.965 34 36.2065Z" fill="white"/>
<path d="M34 32.8256L34.5 32.8256L34.5 32.8256L34 32.8256ZM34 36.2065L33.5 36.2065L33.5 36.2065L34 36.2065ZM34 11.1461L33.5 11.1461L33.5 11.1461L34 11.1461ZM35.4865 1L35.9632 1.15072L36.1689 0.5H35.4865V1ZM1 1V0.5H0.5V1H1ZM1 758H0.5V758.5H1V758ZM1441 758V758.5H1441.5V758H1441ZM1441 1H1441.5V0.5L1441 0.5L1441 1ZM1405.67 1L1405.67 0.5L1404.88 0.5L1405.22 1.21432L1405.67 1ZM1407.98 735.22H1407.48V735.243L1407.48 735.267L1407.98 735.22ZM754.502 752.88L754.172 753.256L754.313 753.38H754.502V752.88ZM603.699 620.428L604.029 620.052L603.887 619.928H603.699V620.428ZM34 580.692L33.5 580.692L33.5 580.692L34 580.692ZM33.5 32.8256V36.2065H34.5V32.8256H33.5ZM33.5 11.1461L33.5 32.8256L34.5 32.8256L34.5 11.1461L33.5 11.1461ZM35.0097 0.849281C33.8609 4.48307 33.5 8.0608 33.5 11.1461H34.5C34.5 8.13573 34.8525 4.66397 35.9632 1.15072L35.0097 0.849281ZM1 1.5H35.4865V0.5H1V1.5ZM1.5 758V1H0.5V758H1.5ZM1441 757.5H1V758.5H1441V757.5ZM1440.5 1V758H1441.5V1H1440.5ZM1405.67 1.5L1441 1.5L1441 0.5L1405.67 0.5L1405.67 1.5ZM1408.48 11.1461C1408.48 7.35993 1407.6 3.90506 1406.12 0.78568L1405.22 1.21432C1406.64 4.21089 1407.48 7.52006 1407.48 11.1461H1408.48ZM1408.48 735.22V11.1461H1407.48V735.22H1408.48ZM1382.85 753.38C1396.37 753.38 1402.83 748.918 1405.88 744.326C1407.4 742.045 1408.05 739.766 1408.32 738.057C1408.45 737.203 1408.49 736.489 1408.5 735.985C1408.5 735.734 1408.5 735.534 1408.49 735.396C1408.49 735.327 1408.48 735.273 1408.48 735.235C1408.48 735.216 1408.48 735.202 1408.48 735.191C1408.48 735.186 1408.48 735.182 1408.48 735.179C1408.48 735.177 1408.48 735.176 1408.48 735.175C1408.48 735.174 1408.48 735.174 1408.48 735.173C1408.48 735.173 1408.48 735.173 1407.98 735.22C1407.48 735.267 1407.48 735.267 1407.48 735.266C1407.48 735.266 1407.48 735.266 1407.48 735.266C1407.48 735.266 1407.48 735.267 1407.48 735.267C1407.48 735.268 1407.48 735.271 1407.48 735.274C1407.48 735.28 1407.48 735.291 1407.48 735.305C1407.49 735.335 1407.49 735.38 1407.49 735.44C1407.5 735.561 1407.5 735.741 1407.5 735.972C1407.49 736.434 1407.46 737.1 1407.33 737.901C1407.07 739.504 1406.47 741.639 1405.05 743.773C1402.23 748.012 1396.13 752.38 1382.85 752.38V753.38ZM754.502 753.38H1382.85V752.38H754.502V753.38ZM603.369 620.803L754.172 753.256L754.832 752.504L604.029 620.052L603.369 620.803ZM59.1338 620.928H603.699V619.928H59.1338V620.928ZM33.5 580.692C33.4997 600.672 39.8246 610.769 46.2566 615.853C49.4627 618.387 52.6704 619.656 55.0792 620.29C56.2836 620.608 57.2895 620.767 57.9977 620.847C58.3518 620.887 58.6318 620.907 58.8252 620.917C58.9219 620.922 58.997 620.925 59.0489 620.926C59.0749 620.927 59.0951 620.927 59.1093 620.927C59.1164 620.928 59.122 620.928 59.1261 620.928C59.1281 620.928 59.1298 620.928 59.1311 620.928C59.1317 620.928 59.1324 620.928 59.1327 620.928C59.1333 620.928 59.1338 620.928 59.1338 620.428C59.1338 619.928 59.1341 619.928 59.1343 619.928C59.1342 619.928 59.1343 619.928 59.1342 619.928C59.1339 619.928 59.1333 619.928 59.1323 619.928C59.1303 619.928 59.1268 619.928 59.1218 619.928C59.1119 619.927 59.096 619.927 59.0744 619.927C59.0312 619.925 58.9652 619.923 58.8778 619.919C58.703 619.909 58.443 619.891 58.1099 619.853C57.4435 619.778 56.4858 619.627 55.3339 619.323C53.03 618.716 49.9542 617.501 46.8768 615.068C40.7417 610.219 34.4997 600.447 34.5 580.692L33.5 580.692ZM33.5 36.2065C33.5001 141.965 33.5005 545.838 33.5 580.692L34.5 580.692C34.5005 545.838 34.5001 141.965 34.5 36.2065L33.5 36.2065Z" fill="white"/>
</svg>
