<svg width="1442" height="890" viewBox="0 0 1442 890" fill="none" xmlns="http://www.w3.org/2000/svg">
<path fill-rule="evenodd" clip-rule="evenodd" d="M1441 1H1V889H1441V1ZM34 114.582V110.929L34 87.5082C34 76.2243 38.1895 58.8893 63.3232 54.1198C80.1236 50.9316 469.4 52.0057 854.555 53.0684C1045.59 53.5955 1235.62 54.1198 1378.68 54.1198C1388.45 57.2996 1408 68.4291 1408 87.5082V799.137C1408 799.137 1379.64 838.114 1352.83 838.114H764.511L603.708 745.737H59.1341C59.1341 745.737 33.9995 745.737 34 702.81C34.0005 665.155 34.0001 228.837 34 114.582Z" fill="white"/>
<path d="M1 1V0.5H0.5V1H1ZM1441 1H1441.5V0.5H1441V1ZM1 889H0.5V889.5H1V889ZM1441 889V889.5H1441.5V889H1441ZM34 110.929L34.5 110.929L34.5 110.929L34 110.929ZM34 114.582L33.5 114.582L33.5 114.582L34 114.582ZM34 87.5082L33.5 87.5082L33.5 87.5082L34 87.5082ZM63.3232 54.1198L63.23 53.6285L63.23 53.6285L63.3232 54.1198ZM854.555 53.0684L854.554 53.5684L854.555 53.0684ZM1378.68 54.1198L1378.83 53.6443L1378.76 53.6198H1378.68V54.1198ZM1408 799.137L1408.4 799.431L1408.5 799.299V799.137H1408ZM764.511 838.114L764.262 838.547L764.378 838.614H764.511V838.114ZM603.708 745.737L603.957 745.304L603.841 745.237H603.708V745.737ZM34 702.81L33.5 702.81L33.5 702.81L34 702.81ZM1 1.5H1441V0.5H1V1.5ZM1.5 889V1H0.5V889H1.5ZM1441 888.5H1V889.5H1441V888.5ZM1440.5 1V889H1441.5V1H1440.5ZM33.5 110.929V114.582H34.5V110.929H33.5ZM33.5 87.5082L33.5 110.929L34.5 110.929L34.5 87.5082L33.5 87.5082ZM63.23 53.6285C50.5491 56.0349 43.0927 61.6275 38.8193 68.0955C34.5563 74.5478 33.5 81.812 33.5 87.5082H34.5C34.5 81.9206 35.5385 74.8753 39.6536 68.6467C43.7585 62.4338 50.9636 56.9741 63.4164 54.611L63.23 53.6285ZM854.556 52.5684C661.979 52.037 468.371 51.5028 320.806 51.5C247.024 51.4986 184.752 51.63 139.875 51.9611C117.436 52.1266 99.3449 52.342 86.3371 52.6158C79.8335 52.7526 74.5982 52.9041 70.7247 53.0714C66.8686 53.2379 64.3231 53.4211 63.23 53.6285L63.4164 54.611C64.4233 54.4199 66.8879 54.238 70.7678 54.0704C74.6305 53.9037 79.8574 53.7524 86.3581 53.6156C99.3591 53.342 117.445 53.1266 139.882 52.961C184.755 52.63 247.025 52.4986 320.806 52.5C468.369 52.5028 661.976 53.037 854.554 53.5684L854.556 52.5684ZM1378.68 53.6198C1235.62 53.6198 1045.6 53.0955 854.556 52.5684L854.554 53.5684C1045.59 54.0955 1235.62 54.6198 1378.68 54.6198V53.6198ZM1408.5 87.5082C1408.5 77.7822 1403.51 70.1057 1397.34 64.4821C1391.17 58.8617 1383.77 55.2522 1378.83 53.6443L1378.52 54.5952C1383.35 56.1671 1390.62 59.7124 1396.67 65.2214C1402.71 70.7274 1407.5 78.1551 1407.5 87.5082H1408.5ZM1408.5 799.137V87.5082H1407.5V799.137H1408.5ZM1352.83 838.614C1359.65 838.614 1366.54 836.136 1373.01 832.458C1379.48 828.778 1385.57 823.879 1390.81 818.991C1396.05 814.101 1400.45 809.214 1403.53 805.549C1405.08 803.716 1406.29 802.189 1407.12 801.118C1407.54 800.583 1407.86 800.162 1408.07 799.875C1408.18 799.731 1408.26 799.62 1408.32 799.546C1408.35 799.508 1408.37 799.48 1408.38 799.461C1408.39 799.451 1408.39 799.444 1408.4 799.439C1408.4 799.436 1408.4 799.434 1408.4 799.433C1408.4 799.432 1408.4 799.432 1408.4 799.432C1408.4 799.431 1408.4 799.431 1408 799.137C1407.6 798.843 1407.6 798.843 1407.6 798.843C1407.6 798.843 1407.6 798.843 1407.59 798.844C1407.59 798.845 1407.59 798.847 1407.59 798.849C1407.59 798.853 1407.58 798.86 1407.58 798.869C1407.56 798.888 1407.54 798.915 1407.52 798.951C1407.46 799.024 1407.38 799.133 1407.28 799.274C1407.06 799.558 1406.75 799.974 1406.33 800.505C1405.51 801.566 1404.3 803.083 1402.77 804.905C1399.7 808.548 1395.33 813.405 1390.13 818.26C1384.92 823.116 1378.9 827.961 1372.51 831.589C1366.13 835.219 1359.41 837.614 1352.83 837.614V838.614ZM764.511 838.614H1352.83V837.614H764.511V838.614ZM603.459 746.171L764.262 838.547L764.76 837.68L603.957 745.304L603.459 746.171ZM59.1341 746.237H603.708V745.237H59.1341V746.237ZM33.5 702.81C33.4997 724.373 39.8161 735.264 46.2422 740.752C49.4478 743.489 52.6572 744.861 55.07 745.548C56.2761 745.891 57.2838 746.063 57.9936 746.15C58.3486 746.193 58.6293 746.215 58.8235 746.226C58.9205 746.232 58.996 746.235 59.0483 746.236C59.0744 746.237 59.0948 746.237 59.1092 746.237C59.1163 746.237 59.122 746.237 59.1262 746.237C59.1283 746.237 59.13 746.237 59.1313 746.237C59.132 746.237 59.1327 746.237 59.133 746.237C59.1336 746.237 59.1341 746.237 59.1341 745.737C59.1341 745.237 59.1345 745.237 59.1347 745.237C59.1346 745.237 59.1348 745.237 59.1347 745.237C59.1345 745.237 59.1339 745.237 59.1329 745.237C59.131 745.237 59.1276 745.237 59.1227 745.237C59.1129 745.237 59.0972 745.237 59.0758 745.236C59.033 745.235 58.9673 745.233 58.8803 745.228C58.7062 745.218 58.447 745.198 58.1147 745.157C57.45 745.076 56.4939 744.913 55.3438 744.586C53.0438 743.931 49.9695 742.62 46.8916 739.991C40.7504 734.747 34.4997 724.174 34.5 702.81L33.5 702.81ZM33.5 114.582C33.5001 228.837 33.5005 665.155 33.5 702.81L34.5 702.81C34.5005 665.155 34.5001 228.837 34.5 114.582L33.5 114.582Z" fill="white"/>
</svg>
