<svg width="1161" height="211" viewBox="0 0 1161 211" fill="none" xmlns="http://www.w3.org/2000/svg">
<path d="M8.50307 77.0158C13.6291 67.0707 21.6611 58.6598 31.6856 52.739C41.4953 47.0539 52.8596 44.1029 64.4258 44.2375C73.5501 44.1386 82.5697 46.0472 90.7454 49.8067C98.3022 53.2214 104.759 58.4189 109.468 64.8777V1.95768H154.265V181.738H109.468V162.303C105.132 168.908 98.9278 174.286 91.5292 177.851C83.1611 181.861 73.8422 183.862 64.4258 183.67C52.8434 183.798 41.4702 180.806 31.6856 175.055C21.6487 169.029 13.621 160.528 8.50307 150.506C2.89826 138.953 0 126.429 0 113.761C0 101.093 2.89826 88.5685 8.50307 77.0158ZM100.18 89.4268C97.2544 86.5933 93.7433 84.3358 89.8558 82.7894C85.9688 81.2431 81.7854 80.4393 77.5556 80.4266C73.3258 80.4139 69.1368 81.1924 65.2388 82.715C61.3403 84.2382 57.8138 86.4747 54.8684 89.2907C48.6602 95.201 45.5561 103.338 45.5561 113.704C45.5561 124.069 48.6602 132.291 54.8684 138.367C57.7818 141.227 61.294 143.505 65.1897 145.062C69.085 146.619 73.2822 147.422 77.5241 147.422C81.7661 147.422 85.9633 146.619 89.8591 145.062C93.7543 143.505 97.2665 141.227 100.18 138.367C106.388 132.397 109.484 124.221 109.468 113.84C109.452 103.46 106.356 95.3223 100.18 89.4268ZM323.699 123.91H222.342C223.061 132.351 225.986 138.791 231.116 143.232C236.256 147.684 243.077 150.084 250.108 149.915C261.283 149.915 269.051 145.543 273.413 136.799H321.102C318.688 145.634 314.166 153.852 307.868 160.848C301.368 168.062 293.169 173.793 283.902 177.601C273.756 181.752 262.764 183.822 251.676 183.67C238.36 183.902 225.201 180.976 213.447 175.169C202.362 169.593 193.261 161.151 187.25 150.869C180.747 139.517 177.498 126.806 177.815 113.954C177.5 101.109 180.704 88.3998 187.127 77.0158C193.062 66.7339 202.12 58.2926 213.177 52.739C224.981 47.192 238.02 44.2805 251.252 44.2371C264.484 44.1937 277.545 47.0194 289.391 52.4887C300.263 57.8742 309.225 66.0602 315.196 76.061C321.592 87.0111 324.794 99.3213 324.484 111.772C324.481 115.829 324.219 119.882 323.699 123.91ZM278.657 100.838C278.806 97.6404 278.18 94.4518 276.822 91.509C275.465 88.5657 273.412 85.9433 270.815 83.8352C265.346 79.555 258.362 77.3036 251.211 77.5158C244.294 77.3257 237.541 79.4839 232.219 83.5849C226.839 88.0398 223.433 94.1877 222.661 100.838H278.657ZM373.471 177.601C364.231 174.024 356.144 168.292 349.994 160.962C344.273 154.14 340.862 145.897 340.192 137.276H384.45C384.674 139.531 385.42 141.713 386.639 143.675C387.857 145.637 389.517 147.331 391.508 148.642C395.993 151.658 401.434 153.201 406.971 153.029C411.528 153.282 416.057 152.218 419.935 149.983C421.354 149.134 422.52 147.966 423.321 146.587C424.122 145.207 424.534 143.662 424.517 142.095C424.531 140.203 423.909 138.354 422.736 136.805C421.563 135.257 419.898 134.086 417.974 133.457C411.094 130.861 403.996 128.793 396.752 127.275C387.856 125.437 379.103 123.045 370.555 120.114C363.55 117.603 357.328 113.518 352.445 108.226C347.38 102.786 344.848 95.4584 344.848 86.2449C344.782 78.6647 347.2 71.2445 351.783 64.9681C356.903 58.2088 363.992 52.9419 372.221 49.7839C382.376 45.8654 393.305 43.9681 404.3 44.2149C422.63 44.2149 437.08 48.4202 447.651 56.8306C458.258 65.3358 464.804 77.3902 465.859 90.3591H424.541C424.279 88.1826 423.555 86.0762 422.412 84.1605C421.267 82.2453 419.726 80.5584 417.876 79.1978C413.622 76.3135 408.437 74.8548 403.172 75.061C398.938 74.8107 394.725 75.7881 391.115 77.8571C389.749 78.6824 388.632 79.8164 387.869 81.1521C387.106 82.4884 386.722 83.9829 386.753 85.4946C386.765 87.4108 387.415 89.2775 388.612 90.8392C389.809 92.4016 391.496 93.583 393.443 94.2236C400.146 96.8229 407.117 98.7804 414.249 100.065C423.228 102.116 432.067 104.666 440.715 107.703C447.682 110.326 453.844 114.504 458.654 119.864C463.8 125.456 466.463 132.942 466.643 142.322C466.752 149.946 464.227 157.402 459.438 163.599C454.148 170.181 446.986 175.265 438.755 178.283C428.813 182.012 418.158 183.83 407.436 183.625C395.787 183.823 384.22 181.772 373.471 177.601ZM705.798 174.146C694.498 168.605 685.145 160.182 678.839 149.869C672.346 138.513 668.951 125.854 668.951 112.999C668.951 100.145 672.346 87.4858 678.839 76.1294C685.227 65.746 694.68 57.2744 706.09 51.7164C718.122 46.126 731.389 43.2153 744.849 43.2153C758.304 43.2153 771.571 46.126 783.603 51.7164C795.018 57.2684 804.476 65.741 810.854 76.1294C817.424 87.4389 820.863 100.084 820.863 112.931C820.863 125.778 817.424 138.424 810.854 149.733C804.361 160.133 794.803 168.6 783.311 174.146C771.328 179.86 758.011 182.748 744.541 182.557C731.07 182.807 717.747 179.915 705.798 174.146ZM766.301 137.776C772.304 131.935 775.319 123.615 775.319 112.772C775.319 101.929 772.403 93.5868 766.549 87.7675C763.766 85.0293 760.409 82.8478 756.683 81.3566C752.957 79.8654 748.939 79.0964 744.882 79.0964C740.826 79.0964 736.813 79.8654 733.087 81.3566C729.361 82.8478 726.004 85.0293 723.221 87.7675C717.439 93.5113 714.556 101.891 714.573 112.908C714.573 123.774 717.411 132.093 723.072 137.913C725.729 140.728 729.014 142.97 732.701 144.482C736.388 145.994 740.39 146.739 744.419 146.664C748.537 146.694 752.61 145.918 756.385 144.386C760.156 142.855 763.534 140.602 766.301 137.776ZM844.327 75.8339C849.453 65.8816 857.484 57.463 867.51 51.5345C877.326 45.862 888.686 42.9123 900.25 43.0329C909.378 42.9306 918.401 44.8475 926.569 48.6248C934.126 52.0317 940.586 57.221 945.293 63.6726V0.84388H990.093V180.624H945.293V161.189C940.961 167.795 934.754 173.172 927.357 176.737C918.99 180.754 909.67 182.756 900.25 182.557C888.67 182.682 877.299 179.689 867.51 173.941C857.484 167.918 849.453 159.426 844.327 149.415C838.457 137.918 835.541 125.31 835.828 112.59C835.536 99.9199 838.446 87.3628 844.327 75.9249V75.8339ZM936.006 88.2223C933.079 85.3887 929.568 83.1312 925.682 81.5843C921.796 80.038 917.613 79.2347 913.379 79.2215C909.152 79.2088 904.963 79.9872 901.066 81.5104C897.169 83.0336 893.641 85.2696 890.693 88.0861C884.497 93.9959 881.405 102.157 881.405 112.499C881.405 122.842 884.497 131.093 890.693 137.162C893.603 140.028 897.103 142.314 900.994 143.881C904.886 145.448 909.08 146.262 913.319 146.275C917.557 146.288 921.757 145.498 925.66 143.955C929.562 142.412 933.079 140.147 936.006 137.299C942.212 131.237 945.31 123.054 945.293 112.749C945.276 102.444 942.184 94.2991 936.006 88.3133V88.2223ZM1159.55 122.706H1058.22C1058.9 131.146 1061.83 137.587 1066.99 142.027C1072.13 146.481 1078.95 148.882 1085.98 148.71C1097.13 148.71 1104.93 144.323 1109.29 135.594H1156.95C1154.54 144.429 1150.02 152.648 1143.72 159.644C1137.22 166.857 1129.02 172.588 1119.75 176.397C1109.65 180.566 1098.69 182.668 1087.63 182.557C1074.3 182.791 1061.14 179.865 1049.37 174.055C1038.29 168.481 1029.19 160.049 1023.18 149.778C1017.01 138.313 1013.78 125.679 1013.76 112.865C1013.74 100.051 1016.92 87.4075 1023.05 75.9249C1028.99 65.6302 1038.06 57.1802 1049.13 51.6249C1060.93 46.0781 1073.97 43.1667 1087.2 43.1233C1100.44 43.0799 1113.49 45.9056 1125.34 51.3752C1136.21 56.7606 1145.16 64.9472 1151.12 74.9474C1157.53 85.8953 1160.73 98.2055 1160.43 110.658C1160.39 114.716 1160.09 118.769 1159.55 122.797V122.706ZM1114.58 99.7242C1114.73 96.5257 1114.11 93.3365 1112.75 90.3932C1111.39 87.45 1109.34 84.8275 1106.74 82.7216C1101.27 78.4415 1094.29 76.19 1087.13 76.4023C1080.22 76.2121 1073.47 78.3698 1068.14 82.4713C1062.76 86.9257 1059.36 93.0741 1058.58 99.7242H1114.58Z" fill="#3F79B6"/>
<path d="M629.365 13.5959L580.155 110.499L628.262 205.106C629.128 206.797 630.489 208.228 632.192 209.233C633.895 210.238 635.874 210.778 637.892 210.789L691.803 210.97L641.91 110.499L691.924 10.0043H635.56C634.27 10.0081 633.008 10.3463 631.911 10.9809C630.814 11.6154 629.932 12.5211 629.365 13.5959Z" fill="#3F79B6"/>
<path d="M583.363 150.71C577.95 150.848 572.565 149.92 567.566 147.988C562.561 146.057 558.058 143.165 554.349 139.504C550.521 135.703 547.538 131.238 545.57 126.367C543.602 121.495 542.688 116.312 542.881 111.113C542.46 100.284 546.66 89.7394 554.569 81.7668C558.339 77.9966 562.931 75.0174 568.04 73.0301C573.15 71.0421 578.661 70.0917 584.201 70.2422C586.753 70.2334 589.305 70.4385 591.818 70.8558L615.883 22.734C606.039 20.0321 595.814 18.6917 585.546 18.756C557.264 18.756 533.487 27.6362 514.209 45.3968C494.931 63.1577 485.284 85.0706 485.268 111.135C485.268 137.034 494.727 158.711 513.645 176.169C532.564 193.627 556.074 202.355 584.173 202.355C594.706 202.439 605.201 201.146 615.343 198.514L590.837 150.233C588.362 150.557 585.865 150.717 583.363 150.71Z" fill="#3F79B6"/>
</svg>
