<svg width="211" height="39" viewBox="0 0 211 39" fill="none" xmlns="http://www.w3.org/2000/svg">
<path d="M1.54269 14.6959C2.47269 12.8919 3.92991 11.3662 5.74864 10.2922C7.52839 9.26094 9.59017 8.72564 11.6886 8.75007C13.344 8.73213 14.9804 9.07833 16.4637 9.76029C17.8347 10.3797 19.0061 11.3225 19.8604 12.4941V1.0807H27.9878V33.6921H19.8604V30.1666C19.0738 31.3648 17.9482 32.3403 16.6059 32.987C15.0877 33.7143 13.397 34.0773 11.6886 34.0425C9.58724 34.0657 7.52382 33.5229 5.74864 32.4798C3.92767 31.3867 2.47122 29.8446 1.54269 28.0266C0.525823 25.931 0 23.6592 0 21.3613C0 19.0633 0.525823 16.7915 1.54269 14.6959ZM18.1754 16.9472C17.6446 16.4332 17.0076 16.0237 16.3023 15.7432C15.5971 15.4627 14.8381 15.3169 14.0707 15.3146C13.3033 15.3123 12.5433 15.4535 11.8361 15.7297C11.1288 16.006 10.489 16.4117 9.95463 16.9225C8.82829 17.9946 8.26513 19.4707 8.26513 21.3509C8.26513 23.2312 8.82829 24.7225 9.95463 25.8248C10.4832 26.3435 11.1204 26.7567 11.8272 27.0392C12.5339 27.3216 13.2954 27.4672 14.065 27.4672C14.8346 27.4672 15.5961 27.3216 16.3029 27.0392C17.0096 26.7567 17.6468 26.3435 18.1754 25.8248C19.3017 24.7417 19.8634 23.2587 19.8604 21.3757C19.8575 19.4927 19.2958 18.0166 18.1754 16.9472ZM58.7279 23.2023H40.339C40.4694 24.7335 41 25.9017 41.9307 26.7072C42.8633 27.5148 44.1008 27.9501 45.3764 27.9194C47.4038 27.9194 48.8132 27.1264 49.6046 25.5403H58.2566C57.8188 27.1429 56.9983 28.6337 55.8557 29.9027C54.6764 31.2112 53.1888 32.2509 51.5075 32.9416C49.6668 33.6945 47.6725 34.07 45.6609 34.0425C43.2451 34.0846 40.8577 33.5538 38.7251 32.5004C36.714 31.489 35.0629 29.9577 33.9723 28.0926C32.7924 26.0334 32.203 23.7276 32.2605 21.3963C32.2034 19.0663 32.7847 16.7609 33.95 14.6959C35.0268 12.8308 36.6701 11.2996 38.6762 10.2922C40.8177 9.28599 43.1833 8.75787 45.584 8.74999C47.9847 8.74212 50.3542 9.25469 52.5034 10.2468C54.4759 11.2237 56.1018 12.7086 57.1851 14.5227C58.3456 16.509 58.9265 18.742 58.8702 21.0005C58.8697 21.7364 58.8222 22.4716 58.7279 23.2023ZM50.556 19.0172C50.5831 18.4371 50.4694 17.8587 50.2231 17.3249C49.9769 16.791 49.6044 16.3153 49.1333 15.9329C48.1411 15.1565 46.874 14.7481 45.5765 14.7866C44.3216 14.7521 43.0964 15.1436 42.1308 15.8875C41.1548 16.6956 40.5369 17.8108 40.3968 19.0172H50.556ZM67.7579 32.9416C66.0814 32.2927 64.6142 31.253 63.4985 29.9233C62.4605 28.6859 61.8416 27.1906 61.7201 25.6269H69.7497C69.7903 26.0358 69.9258 26.4317 70.1468 26.7875C70.3678 27.1434 70.6691 27.4507 71.0302 27.6885C71.8439 28.2356 72.8311 28.5156 73.8356 28.4843C74.6624 28.5303 75.4841 28.3372 76.1876 27.9318C76.4452 27.7778 76.6566 27.5659 76.802 27.3157C76.9474 27.0655 77.022 26.7852 77.019 26.501C77.0215 26.1577 76.9086 25.8223 76.6958 25.5414C76.483 25.2605 76.181 25.0482 75.8319 24.9341C74.5837 24.4632 73.296 24.0881 71.9816 23.8126C70.3676 23.4793 68.7797 23.0453 67.2288 22.5137C65.958 22.0582 64.829 21.3172 63.9431 20.3572C63.0243 19.3704 62.5649 18.0413 62.5649 16.37C62.5528 14.995 62.9915 13.649 63.8231 12.5105C64.7519 11.2844 66.0381 10.329 67.5311 9.75616C69.3734 9.04535 71.3562 8.7012 73.351 8.74597C76.6766 8.74597 79.2983 9.50878 81.2161 11.0344C83.1405 12.5772 84.3282 14.7638 84.5195 17.1163H77.0234C76.9759 16.7215 76.8445 16.3394 76.637 15.9919C76.4294 15.6445 76.1498 15.3385 75.8141 15.0917C75.0423 14.5685 74.1017 14.3039 73.1465 14.3413C72.3783 14.2959 71.6139 14.4732 70.959 14.8485C70.7112 14.9982 70.5085 15.2039 70.3701 15.4462C70.2316 15.6886 70.1619 15.9597 70.1676 16.2339C70.1698 16.5815 70.2876 16.9201 70.5048 17.2034C70.722 17.4868 71.0281 17.7011 71.3814 17.8173C72.5974 18.2888 73.8622 18.6439 75.1561 18.8769C76.7852 19.249 78.3887 19.7116 79.9578 20.2624C81.2218 20.7383 82.3397 21.496 83.2124 22.4684C84.146 23.4827 84.6292 24.8407 84.6618 26.5422C84.6815 27.9251 84.2234 29.2776 83.3546 30.4016C82.3949 31.5956 81.0955 32.5179 79.6021 33.0653C77.7984 33.7418 75.8653 34.0715 73.9201 34.0343C71.8065 34.0703 69.708 33.6982 67.7579 32.9416ZM128.051 32.3149C126.001 31.3098 124.304 29.7818 123.16 27.9112C121.982 25.8512 121.366 23.5549 121.366 21.2231C121.366 18.8914 121.982 16.5951 123.16 14.5351C124.319 12.6516 126.034 11.1149 128.104 10.1067C130.287 9.09263 132.694 8.56464 135.136 8.56464C137.577 8.56464 139.984 9.09263 142.167 10.1067C144.238 11.1138 145.954 12.6507 147.111 14.5351C148.303 16.5866 148.927 18.8804 148.927 21.2108C148.927 23.5411 148.303 25.835 147.111 27.8864C145.933 29.7729 144.199 31.3089 142.114 32.3149C139.94 33.3513 137.524 33.8753 135.08 33.8405C132.636 33.886 130.219 33.3614 128.051 32.3149ZM139.028 25.7176C140.117 24.6579 140.664 23.1487 140.664 21.1819C140.664 19.2151 140.135 17.7018 139.073 16.6462C138.568 16.1495 137.959 15.7538 137.283 15.4833C136.607 15.2128 135.878 15.0733 135.142 15.0733C134.406 15.0733 133.678 15.2128 133.002 15.4833C132.326 15.7538 131.717 16.1495 131.212 16.6462C130.163 17.6881 129.64 19.2082 129.643 21.2066C129.643 23.1776 130.158 24.6867 131.185 25.7423C131.667 26.253 132.263 26.6597 132.932 26.934C133.601 27.2082 134.327 27.3433 135.058 27.3298C135.805 27.3352 136.544 27.1944 137.229 26.9166C137.913 26.6388 138.526 26.2302 139.028 25.7176ZM153.184 14.4815C154.114 12.6762 155.571 11.1491 157.39 10.0737C159.171 9.04474 161.232 8.50967 163.33 8.53155C164.986 8.51299 166.623 8.86072 168.105 9.54589C169.476 10.1639 170.648 11.1052 171.502 12.2755V0.878662H179.63V33.49H171.502V29.9646C170.716 31.1628 169.59 32.1382 168.248 32.7849C166.73 33.5136 165.039 33.8766 163.33 33.8405C161.229 33.8632 159.166 33.3204 157.39 32.2777C155.571 31.1851 154.114 29.6447 153.184 27.8287C152.119 25.7432 151.59 23.4563 151.642 21.1489C151.589 18.8506 152.117 16.5728 153.184 14.498V14.4815ZM169.817 16.7287C169.286 16.2147 168.649 15.8052 167.944 15.5246C167.239 15.2441 166.48 15.0984 165.712 15.096C164.945 15.0937 164.185 15.2349 163.478 15.5112C162.771 15.7875 162.131 16.1931 161.596 16.704C160.472 17.776 159.911 19.2563 159.911 21.1324C159.911 23.0085 160.472 24.5053 161.596 25.6062C162.124 26.126 162.759 26.5407 163.465 26.8249C164.171 27.1091 164.932 27.2569 165.701 27.2592C166.47 27.2615 167.232 27.1183 167.94 26.8384C168.648 26.5584 169.286 26.1476 169.817 25.631C170.943 24.5314 171.505 23.047 171.502 21.1778C171.499 19.3085 170.938 17.831 169.817 16.7452V16.7287ZM210.374 22.9838H191.99C192.114 24.5149 192.645 25.6832 193.581 26.4886C194.514 27.2966 195.751 27.732 197.027 27.7009C199.05 27.7009 200.464 26.9051 201.255 25.3217H209.903C209.465 26.9243 208.645 28.4152 207.502 29.6842C206.323 30.9926 204.835 32.0323 203.154 32.7231C201.32 33.4795 199.332 33.8607 197.325 33.8405C194.908 33.8831 192.519 33.3523 190.385 32.2984C188.375 31.2873 186.724 29.7577 185.632 27.8947C184.513 25.815 183.928 23.5231 183.924 21.1988C183.92 18.8744 184.497 16.5809 185.61 14.498C186.687 12.6306 188.332 11.0978 190.34 10.0901C192.482 9.08393 194.847 8.55583 197.248 8.54796C199.649 8.54008 202.018 9.05265 204.167 10.0448C206.139 11.0217 207.763 12.5067 208.845 14.3207C210.007 16.3066 210.589 18.5396 210.534 20.7984C210.526 21.5346 210.472 22.2697 210.374 23.0003V22.9838ZM202.216 18.8151C202.243 18.2349 202.13 17.6564 201.884 17.1225C201.637 16.5886 201.264 16.1129 200.793 15.7309C199.801 14.9545 198.534 14.5461 197.236 14.5846C195.981 14.5501 194.756 14.9415 193.79 15.6855C192.814 16.4935 192.196 17.6088 192.056 18.8151H202.216Z" fill="#3F79B6"/>
<path d="M114.184 3.19187L105.256 20.7696L113.984 37.9309C114.141 38.2377 114.388 38.4972 114.697 38.6796C115.006 38.8619 115.365 38.9597 115.731 38.9617L125.512 38.9947L116.46 20.7696L125.534 2.54037H115.308C115.074 2.54106 114.845 2.60242 114.646 2.71752C114.447 2.83263 114.287 2.99691 114.184 3.19187Z" fill="#3F79B6"/>
<path d="M105.838 28.0637C104.856 28.0887 103.879 27.9204 102.972 27.57C102.064 27.2197 101.247 26.6951 100.574 26.0309C99.8796 25.3414 99.3383 24.5316 98.9813 23.6479C98.6243 22.7643 98.4585 21.824 98.4935 20.8809C98.417 18.9167 99.1791 17.0039 100.614 15.5577C101.298 14.8738 102.131 14.3334 103.058 13.9729C103.985 13.6123 104.985 13.4399 105.99 13.4672C106.453 13.4656 106.916 13.5028 107.372 13.5785L111.738 4.84942C109.952 4.35932 108.097 4.11618 106.234 4.12784C101.103 4.12784 96.7891 5.73867 93.2916 8.96036C89.794 12.1821 88.0437 16.157 88.0408 20.885C88.0408 25.5829 89.757 29.5151 93.1893 32.6819C96.6217 35.8486 100.887 37.4319 105.985 37.4319C107.896 37.4471 109.8 37.2125 111.64 36.7351L107.194 27.9771C106.745 28.036 106.292 28.065 105.838 28.0637Z" fill="#3F79B6"/>
</svg>
