<svg width="1442" height="1068" viewBox="0 0 1442 1068" fill="none" xmlns="http://www.w3.org/2000/svg">
<path fill-rule="evenodd" clip-rule="evenodd" d="M1441 1H1V1067H1441V1ZM34 182.334V178.462L34 153.637C34 141.677 38.1895 123.302 63.3227 118.247C80.1229 114.868 469.394 116.006 854.543 117.132C1045.58 117.691 1235.6 118.247 1378.66 118.247C1388.43 121.617 1407.98 133.414 1407.98 153.637V982.777C1407.98 982.777 1409.65 1003 1382.85 1003H754.502L603.699 851.328H59.1338C59.1338 851.328 33.9995 851.328 34 805.826C34.0005 765.915 34.0001 303.438 34 182.334Z" fill="white"/>
<path d="M1 1V0.5H0.5V1H1ZM1441 1H1441.5V0.5H1441V1ZM1 1067H0.5V1067.5H1V1067ZM1441 1067V1067.5H1441.5V1067H1441ZM34 178.462L34.5 178.462L34.5 178.462L34 178.462ZM34 182.334L33.5 182.334L33.5 182.334L34 182.334ZM34 153.637L33.5 153.637L33.5 153.637L34 153.637ZM63.3227 118.247L63.4213 118.737L63.4213 118.737L63.3227 118.247ZM854.543 117.132L854.541 117.632L854.543 117.132ZM1378.66 118.247L1378.82 117.774L1378.74 117.747H1378.66V118.247ZM1407.98 982.777H1407.48V982.798L1407.48 982.818L1407.98 982.777ZM754.502 1003L754.147 1003.35L754.294 1003.5H754.502V1003ZM603.699 851.328L604.054 850.976L603.907 850.828H603.699V851.328ZM34 805.826L33.5 805.826L33.5 805.826L34 805.826ZM1 1.5H1441V0.5H1V1.5ZM1.5 1067V1H0.5V1067H1.5ZM1441 1066.5H1V1067.5H1441V1066.5ZM1440.5 1V1067H1441.5V1H1440.5ZM33.5 178.462V182.334H34.5V178.462H33.5ZM33.5 153.637L33.5 178.462L34.5 178.462L34.5 153.637L33.5 153.637ZM63.2241 117.757C50.5352 120.309 43.0806 126.24 38.8121 133.088C34.5548 139.918 33.5 147.607 33.5 153.637H34.5C34.5 147.707 35.5399 140.228 39.6607 133.617C43.7703 127.024 50.977 121.24 63.4213 118.737L63.2241 117.757ZM854.544 116.632C661.97 116.069 468.364 115.503 320.802 115.5C247.021 115.499 184.75 115.638 139.873 115.989C117.435 116.164 99.3435 116.393 86.3357 116.683C79.8321 116.828 74.5966 116.988 70.7229 117.166C66.8674 117.342 64.3197 117.536 63.2241 117.757L63.4213 118.737C64.4258 118.535 66.888 118.342 70.7686 118.165C74.6309 117.988 79.8574 117.827 86.358 117.682C99.3585 117.392 117.444 117.164 139.881 116.989C184.753 116.638 247.021 116.499 320.802 116.5C468.362 116.503 661.966 117.069 854.541 117.632L854.544 116.632ZM1378.66 117.747C1235.6 117.747 1045.58 117.191 854.544 116.632L854.541 117.632C1045.58 118.191 1235.6 118.747 1378.66 118.747V117.747ZM1408.48 153.637C1408.48 143.35 1403.5 135.223 1397.33 129.263C1391.16 123.306 1383.76 119.479 1378.82 117.774L1378.49 118.72C1383.32 120.385 1390.59 124.142 1396.64 129.982C1402.68 135.818 1407.48 143.701 1407.48 153.637H1408.48ZM1408.48 982.777V153.637H1407.48V982.777H1408.48ZM1382.85 1003.5C1396.4 1003.5 1402.86 998.375 1405.9 993.139C1407.41 990.541 1408.05 987.947 1408.32 986.005C1408.45 985.034 1408.49 984.223 1408.5 983.652C1408.5 983.367 1408.5 983.141 1408.49 982.985C1408.49 982.907 1408.48 982.846 1408.48 982.804C1408.48 982.784 1408.48 982.767 1408.48 982.756C1408.48 982.75 1408.48 982.745 1408.48 982.742C1408.48 982.74 1408.48 982.739 1408.48 982.738C1408.48 982.738 1408.48 982.737 1408.48 982.737C1408.48 982.736 1408.48 982.736 1407.98 982.777C1407.48 982.818 1407.48 982.818 1407.48 982.818C1407.48 982.818 1407.48 982.818 1407.48 982.818C1407.48 982.818 1407.48 982.819 1407.48 982.82C1407.48 982.821 1407.48 982.824 1407.48 982.828C1407.48 982.836 1407.48 982.849 1407.48 982.866C1407.49 982.9 1407.49 982.953 1407.49 983.024C1407.5 983.164 1407.5 983.373 1407.5 983.64C1407.49 984.175 1407.45 984.944 1407.33 985.869C1407.07 987.719 1406.46 990.18 1405.03 992.638C1402.21 997.514 1396.1 1002.5 1382.85 1002.5V1003.5ZM754.502 1003.5H1382.85V1002.5H754.502V1003.5ZM603.344 851.681L754.147 1003.35L754.856 1002.65L604.054 850.976L603.344 851.681ZM59.1338 851.828H603.699V850.828H59.1338V851.828ZM33.5 805.826C33.4997 828.668 39.8105 840.199 46.2312 846.011C49.436 848.912 52.6463 850.367 55.0621 851.096C56.2696 851.46 57.2785 851.643 57.9897 851.735C58.3453 851.781 58.6267 851.804 58.8214 851.816C58.9188 851.822 58.9945 851.825 59.0471 851.826C59.0734 851.827 59.0939 851.828 59.1084 851.828C59.1156 851.828 59.1214 851.828 59.1256 851.828C59.1278 851.828 59.1295 851.828 59.1309 851.828C59.1315 851.828 59.1323 851.828 59.1326 851.828C59.1332 851.828 59.1338 851.828 59.1338 851.328C59.1338 850.828 59.1341 850.828 59.1344 850.828C59.1343 850.828 59.1345 850.828 59.1344 850.828C59.1342 850.828 59.1337 850.828 59.1328 850.828C59.1309 850.828 59.1276 850.828 59.1227 850.828C59.1131 850.828 59.0975 850.828 59.0763 850.827C59.0337 850.826 58.9683 850.823 58.8816 850.818C58.7082 850.807 58.4495 850.786 58.1179 850.743C57.4545 850.658 56.4999 850.485 55.351 850.138C53.0542 849.445 49.9809 848.056 46.9022 845.27C40.7559 839.706 34.4997 828.487 34.5 805.826L33.5 805.826ZM33.5 182.334C33.5001 303.438 33.5005 765.915 33.5 805.826L34.5 805.826C34.5005 765.915 34.5001 303.438 34.5 182.334L33.5 182.334Z" fill="white"/>
</svg>
